<svg width="189" height="54" viewBox="0 0 189 54" fill="none" xmlns="http://www.w3.org/2000/svg">
<rect width="189" height="54" fill="white"/>
<path d="M36.25 27C36.25 33.7655 30.7655 39.25 24 39.25C17.2345 39.25 11.75 33.7655 11.75 27C11.75 20.2345 17.2345 14.75 24 14.75C30.7655 14.75 36.25 20.2345 36.25 27Z" fill="#00408E" stroke="white"/>
<path d="M24.0001 21.3333V32.6666V21.3333ZM29.6668 27H18.3334H29.6668Z" fill="#2857AB"/>
<path d="M24.0001 21.3333V32.6666M29.6668 27H18.3334" stroke="white" stroke-width="1.5" stroke-linecap="square" stroke-linejoin="round"/>
<path d="M54.305 41.54C50.495 41.54 47.72 40.775 45.98 39.245C44.24 37.685 43.475 35.525 43.685 32.765C43.745 32.255 43.955 32 44.315 32H48.545C48.935 32 49.115 32.225 49.085 32.675C49.085 34.145 49.535 35.225 50.435 35.915C51.335 36.575 52.715 36.905 54.575 36.905C56.405 36.905 57.755 36.62 58.625 36.05C59.525 35.45 59.975 34.535 59.975 33.305C59.975 32.735 59.87 32.24 59.66 31.82C59.45 31.37 59.09 30.98 58.58 30.65C58.07 30.29 57.38 29.93 56.51 29.57L49.985 26.78C48.545 26.15 47.39 25.475 46.52 24.755C45.65 24.005 45.035 23.15 44.675 22.19C44.315 21.23 44.135 20.135 44.135 18.905C44.165 16.355 45.02 14.405 46.7 13.055C48.38 11.705 50.885 11.03 54.215 11.03C56.555 11.03 58.535 11.36 60.155 12.02C61.805 12.65 63.035 13.595 63.845 14.855C64.655 16.085 64.97 17.63 64.79 19.49C64.73 20.03 64.55 20.3 64.25 20.3H59.975C59.795 20.3 59.66 20.24 59.57 20.12C59.48 20 59.45 19.79 59.48 19.49C59.57 18.29 59.135 17.345 58.175 16.655C57.245 15.935 55.91 15.575 54.17 15.575C52.64 15.575 51.485 15.845 50.705 16.385C49.925 16.925 49.535 17.735 49.535 18.815C49.535 19.385 49.64 19.895 49.85 20.345C50.06 20.765 50.42 21.155 50.93 21.515C51.47 21.875 52.19 22.25 53.09 22.64L59.525 25.385C60.995 25.985 62.15 26.66 62.99 27.41C63.86 28.13 64.475 28.97 64.835 29.93C65.225 30.89 65.405 32.03 65.375 33.35C65.375 35.96 64.49 37.985 62.72 39.425C60.95 40.835 58.145 41.54 54.305 41.54ZM82.172 41.54C78.422 41.54 75.557 40.61 73.577 38.75C71.597 36.89 70.607 34.115 70.607 30.425V12.065C70.607 11.705 70.772 11.525 71.102 11.525H75.467C75.827 11.525 76.007 11.705 76.007 12.065V30.335C76.007 32.405 76.517 34.01 77.537 35.15C78.557 36.26 80.102 36.815 82.172 36.815C84.242 36.815 85.787 36.26 86.807 35.15C87.827 34.01 88.337 32.405 88.337 30.335V12.065C88.337 11.705 88.502 11.525 88.832 11.525H93.197C93.557 11.525 93.737 11.705 93.737 12.065V30.515C93.737 34.085 92.732 36.815 90.722 38.705C88.712 40.595 85.862 41.54 82.172 41.54ZM109.368 41.54C105.558 41.54 102.783 40.775 101.043 39.245C99.3035 37.685 98.5385 35.525 98.7485 32.765C98.8085 32.255 99.0185 32 99.3785 32H103.608C103.998 32 104.178 32.225 104.148 32.675C104.148 34.145 104.598 35.225 105.498 35.915C106.398 36.575 107.778 36.905 109.638 36.905C111.468 36.905 112.818 36.62 113.688 36.05C114.588 35.45 115.038 34.535 115.038 33.305C115.038 32.735 114.933 32.24 114.723 31.82C114.513 31.37 114.153 30.98 113.643 30.65C113.133 30.29 112.443 29.93 111.573 29.57L105.048 26.78C103.608 26.15 102.453 25.475 101.583 24.755C100.713 24.005 100.098 23.15 99.7385 22.19C99.3785 21.23 99.1985 20.135 99.1985 18.905C99.2285 16.355 100.083 14.405 101.763 13.055C103.443 11.705 105.948 11.03 109.278 11.03C111.618 11.03 113.598 11.36 115.218 12.02C116.868 12.65 118.098 13.595 118.908 14.855C119.718 16.085 120.033 17.63 119.853 19.49C119.793 20.03 119.613 20.3 119.313 20.3H115.038C114.858 20.3 114.723 20.24 114.633 20.12C114.543 20 114.513 19.79 114.543 19.49C114.633 18.29 114.198 17.345 113.238 16.655C112.308 15.935 110.973 15.575 109.233 15.575C107.703 15.575 106.548 15.845 105.768 16.385C104.988 16.925 104.598 17.735 104.598 18.815C104.598 19.385 104.703 19.895 104.913 20.345C105.123 20.765 105.483 21.155 105.993 21.515C106.533 21.875 107.253 22.25 108.153 22.64L114.588 25.385C116.058 25.985 117.213 26.66 118.053 27.41C118.923 28.13 119.538 28.97 119.898 29.93C120.288 30.89 120.468 32.03 120.438 33.35C120.438 35.96 119.553 37.985 117.783 39.425C116.013 40.835 113.208 41.54 109.368 41.54Z" fill="#00408E"/>
<path d="M130.54 18.12C129.693 18.12 129.077 17.95 128.69 17.61C128.303 17.2633 128.133 16.7833 128.18 16.17C128.193 16.0567 128.24 16 128.32 16H129.26C129.347 16 129.387 16.05 129.38 16.15C129.38 16.4767 129.48 16.7167 129.68 16.87C129.88 17.0167 130.187 17.09 130.6 17.09C131.007 17.09 131.307 17.0267 131.5 16.9C131.7 16.7667 131.8 16.5633 131.8 16.29C131.8 16.1633 131.777 16.0533 131.73 15.96C131.683 15.86 131.603 15.7733 131.49 15.7C131.377 15.62 131.223 15.54 131.03 15.46L129.58 14.84C129.26 14.7 129.003 14.55 128.81 14.39C128.617 14.2233 128.48 14.0333 128.4 13.82C128.32 13.6067 128.28 13.3633 128.28 13.09C128.287 12.5233 128.477 12.09 128.85 11.79C129.223 11.49 129.78 11.34 130.52 11.34C131.04 11.34 131.48 11.4133 131.84 11.56C132.207 11.7 132.48 11.91 132.66 12.19C132.84 12.4633 132.91 12.8067 132.87 13.22C132.857 13.34 132.817 13.4 132.75 13.4H131.8C131.76 13.4 131.73 13.3867 131.71 13.36C131.69 13.3333 131.683 13.2867 131.69 13.22C131.71 12.9533 131.613 12.7433 131.4 12.59C131.193 12.43 130.897 12.35 130.51 12.35C130.17 12.35 129.913 12.41 129.74 12.53C129.567 12.65 129.48 12.83 129.48 13.07C129.48 13.1967 129.503 13.31 129.55 13.41C129.597 13.5033 129.677 13.59 129.79 13.67C129.91 13.75 130.07 13.8333 130.27 13.92L131.7 14.53C132.027 14.6633 132.283 14.8133 132.47 14.98C132.663 15.14 132.8 15.3267 132.88 15.54C132.967 15.7533 133.007 16.0067 133 16.3C133 16.88 132.803 17.33 132.41 17.65C132.017 17.9633 131.393 18.12 130.54 18.12ZM134.223 18C134.149 18 134.113 17.96 134.113 17.88V13.2C134.113 13.12 134.149 13.08 134.223 13.08H135.173C135.253 13.08 135.293 13.12 135.293 13.2V17.88C135.293 17.96 135.253 18 135.173 18H134.223ZM134.703 12.37C134.476 12.37 134.303 12.31 134.183 12.19C134.069 12.07 134.013 11.9167 134.013 11.73V11.58C134.013 11.3867 134.069 11.2333 134.183 11.12C134.303 11 134.476 10.94 134.703 10.94C134.929 10.94 135.099 11 135.213 11.12C135.326 11.2333 135.383 11.3867 135.383 11.58V11.73C135.383 11.9167 135.326 12.07 135.213 12.19C135.099 12.31 134.929 12.37 134.703 12.37ZM138.274 18.12C137.614 18.12 137.127 17.99 136.814 17.73C136.507 17.47 136.364 17.0667 136.384 16.52C136.384 16.4467 136.424 16.41 136.504 16.41H137.404C137.47 16.41 137.504 16.4467 137.504 16.52C137.504 16.76 137.567 16.9367 137.694 17.05C137.82 17.1633 138.014 17.22 138.274 17.22C138.547 17.22 138.75 17.1767 138.884 17.09C139.017 17.0033 139.084 16.87 139.084 16.69C139.084 16.5633 139.04 16.4567 138.954 16.37C138.867 16.2767 138.727 16.19 138.534 16.11L137.394 15.63C137.047 15.4833 136.797 15.31 136.644 15.11C136.497 14.91 136.424 14.65 136.424 14.33C136.424 13.8767 136.57 13.5367 136.864 13.31C137.164 13.0767 137.624 12.96 138.244 12.96C138.877 12.96 139.354 13.08 139.674 13.32C139.994 13.56 140.154 13.91 140.154 14.37C140.154 14.4433 140.114 14.48 140.034 14.48H139.134C139.054 14.48 139.014 14.4267 139.014 14.32C139.014 14.1733 138.95 14.06 138.824 13.98C138.697 13.8933 138.52 13.85 138.294 13.85C138.06 13.85 137.887 13.89 137.774 13.97C137.66 14.05 137.604 14.17 137.604 14.33C137.604 14.45 137.637 14.5433 137.704 14.61C137.777 14.6767 137.917 14.7533 138.124 14.84L139.264 15.32C139.617 15.4667 139.87 15.6433 140.024 15.85C140.184 16.05 140.264 16.3133 140.264 16.64C140.264 17.1267 140.094 17.4967 139.754 17.75C139.414 17.9967 138.92 18.12 138.274 18.12ZM143.221 18.12C142.834 18.12 142.524 18.06 142.291 17.94C142.064 17.82 141.897 17.6333 141.791 17.38C141.691 17.1267 141.641 16.8033 141.641 16.41V14.07H140.911C140.831 14.07 140.791 14.03 140.791 13.95V13.2C140.791 13.12 140.831 13.08 140.911 13.08H141.681L141.811 11.88C141.824 11.8067 141.867 11.77 141.941 11.77H142.701C142.781 11.77 142.821 11.81 142.821 11.89V13.08H144.191C144.271 13.08 144.311 13.12 144.311 13.2V13.95C144.311 14.03 144.271 14.07 144.191 14.07H142.821V16.35C142.821 16.6167 142.871 16.81 142.971 16.93C143.071 17.05 143.237 17.11 143.471 17.11C143.591 17.11 143.711 17.0967 143.831 17.07C143.957 17.0433 144.074 17.0067 144.181 16.96C144.274 16.9267 144.321 16.9567 144.321 17.05V17.82C144.321 17.8867 144.291 17.93 144.231 17.95C144.097 18.0033 143.944 18.0433 143.771 18.07C143.604 18.1033 143.421 18.12 143.221 18.12ZM147.178 18.12C146.458 18.12 145.918 17.9633 145.558 17.65C145.198 17.33 145.018 16.8567 145.018 16.23V14.99C145.018 14.3233 145.194 13.82 145.548 13.48C145.908 13.1333 146.448 12.96 147.168 12.96C147.874 12.96 148.408 13.1267 148.768 13.46C149.128 13.7933 149.308 14.28 149.308 14.92V15.7C149.308 15.78 149.268 15.82 149.188 15.82H146.188V16.12C146.188 16.4867 146.264 16.7567 146.418 16.93C146.578 17.0967 146.834 17.18 147.188 17.18C147.461 17.18 147.671 17.1367 147.818 17.05C147.971 16.9633 148.048 16.8333 148.048 16.66C148.048 16.58 148.088 16.54 148.168 16.54H149.088C149.161 16.54 149.201 16.5767 149.208 16.65C149.228 17.13 149.061 17.4967 148.708 17.75C148.361 17.9967 147.851 18.12 147.178 18.12ZM146.188 15.02H148.148V14.97C148.148 14.6033 148.068 14.3333 147.908 14.16C147.748 13.9867 147.504 13.9 147.178 13.9C146.838 13.9 146.588 13.99 146.428 14.17C146.268 14.3433 146.188 14.6133 146.188 14.98V15.02ZM150.561 18C150.487 18 150.451 17.96 150.451 17.88V14.33C150.451 14.1367 150.444 13.9433 150.431 13.75C150.424 13.5567 150.407 13.3767 150.381 13.21C150.367 13.1233 150.407 13.08 150.501 13.08H151.341C151.407 13.08 151.447 13.11 151.461 13.17C151.474 13.2633 151.491 13.3633 151.511 13.47C151.531 13.5767 151.544 13.69 151.551 13.81C151.811 13.5433 152.071 13.3367 152.331 13.19C152.591 13.0367 152.887 12.96 153.221 12.96C153.574 12.96 153.847 13.0333 154.041 13.18C154.241 13.3267 154.384 13.5433 154.471 13.83C154.744 13.5567 155.014 13.3433 155.281 13.19C155.554 13.0367 155.861 12.96 156.201 12.96C156.654 12.96 156.994 13.0967 157.221 13.37C157.454 13.6367 157.571 14.0467 157.571 14.6V17.88C157.571 17.96 157.534 18 157.461 18H156.511C156.431 18 156.391 17.96 156.391 17.88V14.8C156.391 14.5267 156.341 14.3233 156.241 14.19C156.147 14.05 155.991 13.98 155.771 13.98C155.584 13.98 155.397 14.0367 155.211 14.15C155.031 14.2567 154.827 14.4167 154.601 14.63V17.88C154.601 17.96 154.561 18 154.481 18H153.541C153.461 18 153.421 17.96 153.421 17.88V14.8C153.421 14.5267 153.371 14.3233 153.271 14.19C153.171 14.05 153.014 13.98 152.801 13.98C152.614 13.98 152.427 14.0367 152.241 14.15C152.061 14.2567 151.857 14.4167 151.631 14.63V17.88C151.631 17.96 151.591 18 151.511 18H150.561ZM161.739 18C161.699 18 161.669 17.99 161.649 17.97C161.636 17.9433 161.622 17.91 161.609 17.87C161.596 17.8033 161.579 17.69 161.559 17.53C161.539 17.3633 161.522 17.21 161.509 17.07L161.439 16.66V14.66C161.439 14.38 161.382 14.1833 161.269 14.07C161.156 13.95 160.959 13.89 160.679 13.89C160.172 13.89 159.926 14.0733 159.939 14.44C159.939 14.52 159.902 14.56 159.829 14.56H158.929C158.849 14.56 158.806 14.5 158.799 14.38C158.759 13.9333 158.909 13.5867 159.249 13.34C159.596 13.0867 160.089 12.96 160.729 12.96C161.382 12.96 161.859 13.1 162.159 13.38C162.466 13.66 162.619 14.0933 162.619 14.68V16.76C162.619 16.9733 162.622 17.1733 162.629 17.36C162.642 17.5467 162.659 17.7167 162.679 17.87C162.692 17.9567 162.656 18 162.569 18H161.739ZM159.829 18.12C159.429 18.12 159.122 18 158.909 17.76C158.696 17.52 158.589 17.1767 158.589 16.73C158.589 16.3833 158.656 16.1033 158.789 15.89C158.922 15.67 159.139 15.5 159.439 15.38C159.746 15.2533 160.152 15.17 160.659 15.13L161.589 15.05V15.77L160.759 15.84C160.372 15.8733 160.106 15.9467 159.959 16.06C159.812 16.1733 159.739 16.3567 159.739 16.61C159.739 16.8033 159.779 16.95 159.859 17.05C159.939 17.1433 160.062 17.19 160.229 17.19C160.429 17.19 160.632 17.1267 160.839 17C161.046 16.8667 161.306 16.6333 161.619 16.3L161.659 17.1C161.459 17.32 161.262 17.5067 161.069 17.66C160.876 17.8133 160.679 17.9267 160.479 18C160.279 18.08 160.062 18.12 159.829 18.12ZM131.01 30.12C130.177 30.12 129.54 29.9133 129.1 29.5C128.66 29.0867 128.44 28.47 128.44 27.65V23.57C128.44 23.49 128.477 23.45 128.55 23.45H129.52C129.6 23.45 129.64 23.49 129.64 23.57V27.63C129.64 28.09 129.753 28.4467 129.98 28.7C130.207 28.9467 130.55 29.07 131.01 29.07C131.47 29.07 131.813 28.9467 132.04 28.7C132.267 28.4467 132.38 28.09 132.38 27.63V23.57C132.38 23.49 132.417 23.45 132.49 23.45H133.46C133.54 23.45 133.58 23.49 133.58 23.57V27.67C133.58 28.4633 133.357 29.07 132.91 29.49C132.463 29.91 131.83 30.12 131.01 30.12ZM130.37 22.91C130.33 22.91 130.307 22.9 130.3 22.88C130.293 22.8533 130.297 22.8267 130.31 22.8L130.9 21.71C130.927 21.6567 130.97 21.63 131.03 21.63H131.94C131.98 21.63 132.003 21.6433 132.01 21.67C132.023 21.6967 132.02 21.7267 132 21.76L131.2 22.85C131.173 22.89 131.13 22.91 131.07 22.91H130.37ZM138.154 30C138.074 30 138.034 29.96 138.034 29.88V26.8C138.034 26.52 137.977 26.3133 137.864 26.18C137.75 26.0467 137.577 25.98 137.344 25.98C137.11 25.98 136.88 26.05 136.654 26.19C136.434 26.3233 136.18 26.5333 135.894 26.82L135.854 25.95C136.047 25.7433 136.24 25.5667 136.434 25.42C136.634 25.2733 136.84 25.16 137.054 25.08C137.267 25 137.5 24.96 137.754 24.96C138.234 24.96 138.597 25.0967 138.844 25.37C139.09 25.6367 139.214 26.05 139.214 26.61V29.88C139.214 29.96 139.174 30 139.094 30H138.154ZM135.014 30C134.94 30 134.904 29.96 134.904 29.88V26.33C134.904 26.1433 134.894 25.9467 134.874 25.74C134.86 25.5333 134.847 25.36 134.834 25.22C134.82 25.1267 134.86 25.08 134.954 25.08H135.794C135.86 25.08 135.904 25.1167 135.924 25.19C135.937 25.2433 135.95 25.3233 135.964 25.43C135.977 25.53 135.99 25.6367 136.004 25.75C136.017 25.8633 136.024 25.9633 136.024 26.05L136.084 26.45V29.88C136.084 29.96 136.044 30 135.964 30H135.014ZM140.59 30C140.517 30 140.48 29.96 140.48 29.88V25.2C140.48 25.12 140.517 25.08 140.59 25.08H141.54C141.62 25.08 141.66 25.12 141.66 25.2V29.88C141.66 29.96 141.62 30 141.54 30H140.59ZM141.07 24.37C140.843 24.37 140.67 24.31 140.55 24.19C140.437 24.07 140.38 23.9167 140.38 23.73V23.58C140.38 23.3867 140.437 23.2333 140.55 23.12C140.67 23 140.843 22.94 141.07 22.94C141.297 22.94 141.467 23 141.58 23.12C141.693 23.2333 141.75 23.3867 141.75 23.58V23.73C141.75 23.9167 141.693 24.07 141.58 24.19C141.467 24.31 141.297 24.37 141.07 24.37ZM144.991 30.12C144.284 30.12 143.741 29.9467 143.361 29.6C142.988 29.2533 142.801 28.7533 142.801 28.1V26.97C142.801 26.3233 142.991 25.8267 143.371 25.48C143.751 25.1333 144.294 24.96 145.001 24.96C145.448 24.96 145.824 25.0333 146.131 25.18C146.438 25.32 146.671 25.5133 146.831 25.76C146.991 26 147.064 26.2767 147.051 26.59C147.044 26.73 147.004 26.8 146.931 26.8H146.031C145.958 26.8 145.921 26.7467 145.921 26.64C145.921 26.4267 145.838 26.2633 145.671 26.15C145.511 26.03 145.291 25.97 145.011 25.97C144.664 25.97 144.404 26.06 144.231 26.24C144.064 26.4133 143.981 26.6967 143.981 27.09V27.99C143.981 28.3767 144.064 28.66 144.231 28.84C144.404 29.0133 144.661 29.1 145.001 29.1C145.294 29.1 145.518 29.04 145.671 28.92C145.831 28.7933 145.911 28.6333 145.911 28.44C145.911 28.34 145.948 28.29 146.021 28.29H146.921C146.994 28.29 147.034 28.3267 147.041 28.4C147.054 28.92 146.888 29.3367 146.541 29.65C146.194 29.9633 145.678 30.12 144.991 30.12ZM150.245 30.12C149.539 30.12 148.992 29.9533 148.605 29.62C148.225 29.28 148.035 28.7667 148.035 28.08V27C148.035 26.32 148.225 25.81 148.605 25.47C148.985 25.13 149.532 24.96 150.245 24.96C150.952 24.96 151.495 25.13 151.875 25.47C152.255 25.81 152.445 26.32 152.445 27V28.08C152.445 28.7667 152.255 29.28 151.875 29.62C151.502 29.9533 150.959 30.12 150.245 30.12ZM150.245 29.11C150.605 29.11 150.865 29.02 151.025 28.84C151.185 28.6533 151.265 28.3633 151.265 27.97V27.11C151.265 26.7167 151.185 26.43 151.025 26.25C150.865 26.0633 150.605 25.97 150.245 25.97C149.885 25.97 149.622 26.0633 149.455 26.25C149.295 26.43 149.215 26.7167 149.215 27.11V27.97C149.215 28.3633 149.295 28.6533 149.455 28.84C149.622 29.02 149.885 29.11 150.245 29.11ZM156.966 30.12C156.499 30.12 156.143 29.9733 155.896 29.68C155.649 29.3867 155.526 28.94 155.526 28.34V26.98C155.526 26.3067 155.683 25.8033 155.996 25.47C156.309 25.13 156.746 24.96 157.306 24.96C157.546 24.96 157.806 24.9933 158.086 25.06C158.366 25.12 158.589 25.2033 158.756 25.31L158.796 26.25C158.609 26.15 158.409 26.0767 158.196 26.03C157.983 25.9767 157.793 25.95 157.626 25.95C157.319 25.95 157.089 26.0467 156.936 26.24C156.783 26.4333 156.706 26.7167 156.706 27.09V28.22C156.706 28.5133 156.763 28.7333 156.876 28.88C156.989 29.0267 157.163 29.1 157.396 29.1C157.549 29.1 157.696 29.07 157.836 29.01C157.983 28.95 158.136 28.86 158.296 28.74C158.456 28.6133 158.636 28.45 158.836 28.25L158.876 29.12C158.676 29.3133 158.476 29.4867 158.276 29.64C158.083 29.7933 157.879 29.9133 157.666 30C157.453 30.08 157.219 30.12 156.966 30.12ZM158.936 30C158.863 30 158.819 29.9633 158.806 29.89C158.786 29.7833 158.766 29.6567 158.746 29.51C158.733 29.3633 158.726 29.2367 158.726 29.13L158.636 28.6V23.29C158.636 23.21 158.676 23.17 158.756 23.17H159.696C159.776 23.17 159.816 23.21 159.816 23.29V28.81C159.816 28.9233 159.819 29.0467 159.826 29.18C159.833 29.3067 159.839 29.43 159.846 29.55C159.859 29.67 159.869 29.77 159.876 29.85C159.896 29.95 159.859 30 159.766 30H158.936ZM163.125 30.12C162.405 30.12 161.865 29.9633 161.505 29.65C161.145 29.33 160.965 28.8567 160.965 28.23V26.99C160.965 26.3233 161.142 25.82 161.495 25.48C161.855 25.1333 162.395 24.96 163.115 24.96C163.822 24.96 164.355 25.1267 164.715 25.46C165.075 25.7933 165.255 26.28 165.255 26.92V27.7C165.255 27.78 165.215 27.82 165.135 27.82H162.135V28.12C162.135 28.4867 162.212 28.7567 162.365 28.93C162.525 29.0967 162.782 29.18 163.135 29.18C163.408 29.18 163.618 29.1367 163.765 29.05C163.918 28.9633 163.995 28.8333 163.995 28.66C163.995 28.58 164.035 28.54 164.115 28.54H165.035C165.108 28.54 165.148 28.5767 165.155 28.65C165.175 29.13 165.008 29.4967 164.655 29.75C164.308 29.9967 163.798 30.12 163.125 30.12ZM162.135 27.02H164.095V26.97C164.095 26.6033 164.015 26.3333 163.855 26.16C163.695 25.9867 163.452 25.9 163.125 25.9C162.785 25.9 162.535 25.99 162.375 26.17C162.215 26.3433 162.135 26.6133 162.135 26.98V27.02ZM130.54 42.12C129.693 42.12 129.077 41.95 128.69 41.61C128.303 41.2633 128.133 40.7833 128.18 40.17C128.193 40.0567 128.24 40 128.32 40H129.26C129.347 40 129.387 40.05 129.38 40.15C129.38 40.4767 129.48 40.7167 129.68 40.87C129.88 41.0167 130.187 41.09 130.6 41.09C131.007 41.09 131.307 41.0267 131.5 40.9C131.7 40.7667 131.8 40.5633 131.8 40.29C131.8 40.1633 131.777 40.0533 131.73 39.96C131.683 39.86 131.603 39.7733 131.49 39.7C131.377 39.62 131.223 39.54 131.03 39.46L129.58 38.84C129.26 38.7 129.003 38.55 128.81 38.39C128.617 38.2233 128.48 38.0333 128.4 37.82C128.32 37.6067 128.28 37.3633 128.28 37.09C128.287 36.5233 128.477 36.09 128.85 35.79C129.223 35.49 129.78 35.34 130.52 35.34C131.04 35.34 131.48 35.4133 131.84 35.56C132.207 35.7 132.48 35.91 132.66 36.19C132.84 36.4633 132.91 36.8067 132.87 37.22C132.857 37.34 132.817 37.4 132.75 37.4H131.8C131.76 37.4 131.73 37.3867 131.71 37.36C131.69 37.3333 131.683 37.2867 131.69 37.22C131.71 36.9533 131.613 36.7433 131.4 36.59C131.193 36.43 130.897 36.35 130.51 36.35C130.17 36.35 129.913 36.41 129.74 36.53C129.567 36.65 129.48 36.83 129.48 37.07C129.48 37.1967 129.503 37.31 129.55 37.41C129.597 37.5033 129.677 37.59 129.79 37.67C129.91 37.75 130.07 37.8333 130.27 37.92L131.7 38.53C132.027 38.6633 132.283 38.8133 132.47 38.98C132.663 39.14 132.8 39.3267 132.88 39.54C132.967 39.7533 133.007 40.0067 133 40.3C133 40.88 132.803 41.33 132.41 41.65C132.017 41.9633 131.393 42.12 130.54 42.12ZM137.003 42C136.963 42 136.933 41.99 136.913 41.97C136.899 41.9433 136.886 41.91 136.873 41.87C136.859 41.8033 136.843 41.69 136.823 41.53C136.803 41.3633 136.786 41.21 136.773 41.07L136.703 40.66V38.66C136.703 38.38 136.646 38.1833 136.533 38.07C136.419 37.95 136.223 37.89 135.943 37.89C135.436 37.89 135.189 38.0733 135.203 38.44C135.203 38.52 135.166 38.56 135.093 38.56H134.193C134.113 38.56 134.069 38.5 134.063 38.38C134.023 37.9333 134.173 37.5867 134.513 37.34C134.859 37.0867 135.353 36.96 135.993 36.96C136.646 36.96 137.123 37.1 137.423 37.38C137.729 37.66 137.883 38.0933 137.883 38.68V40.76C137.883 40.9733 137.886 41.1733 137.893 41.36C137.906 41.5467 137.923 41.7167 137.943 41.87C137.956 41.9567 137.919 42 137.833 42H137.003ZM135.093 42.12C134.693 42.12 134.386 42 134.173 41.76C133.959 41.52 133.853 41.1767 133.853 40.73C133.853 40.3833 133.919 40.1033 134.053 39.89C134.186 39.67 134.403 39.5 134.703 39.38C135.009 39.2533 135.416 39.17 135.923 39.13L136.853 39.05V39.77L136.023 39.84C135.636 39.8733 135.369 39.9467 135.223 40.06C135.076 40.1733 135.003 40.3567 135.003 40.61C135.003 40.8033 135.043 40.95 135.123 41.05C135.203 41.1433 135.326 41.19 135.493 41.19C135.693 41.19 135.896 41.1267 136.103 41C136.309 40.8667 136.569 40.6333 136.883 40.3L136.923 41.1C136.723 41.32 136.526 41.5067 136.333 41.66C136.139 41.8133 135.943 41.9267 135.743 42C135.543 42.08 135.326 42.12 135.093 42.12ZM140.492 42.12C140.052 42.12 139.718 41.9833 139.492 41.71C139.265 41.43 139.152 41.0167 139.152 40.47V37.2C139.152 37.12 139.188 37.08 139.262 37.08H140.212C140.292 37.08 140.332 37.12 140.332 37.2V40.28C140.332 40.56 140.378 40.7667 140.472 40.9C140.572 41.0333 140.725 41.1 140.932 41.1C141.152 41.1 141.372 41.03 141.592 40.89C141.818 40.7433 142.072 40.5267 142.352 40.24L142.392 41.12C142.198 41.3133 142.002 41.4867 141.802 41.64C141.608 41.7867 141.402 41.9033 141.182 41.99C140.968 42.0767 140.738 42.12 140.492 42.12ZM142.472 42C142.392 42 142.345 41.9633 142.332 41.89C142.312 41.77 142.292 41.6433 142.272 41.51C142.258 41.3767 142.248 41.2433 142.242 41.11L142.152 40.6V37.2C142.152 37.12 142.192 37.08 142.272 37.08H143.222C143.295 37.08 143.332 37.12 143.332 37.2V40.75C143.332 40.9433 143.335 41.1367 143.342 41.33C143.355 41.5167 143.375 41.7 143.402 41.88C143.415 41.96 143.375 42 143.282 42H142.472ZM140.592 36.43C140.505 36.43 140.482 36.39 140.522 36.31L141.202 35.06C141.235 35 141.285 34.97 141.352 34.97H142.252C142.292 34.97 142.315 34.9867 142.322 35.02C142.335 35.0467 142.328 35.0733 142.302 35.1L141.402 36.36C141.375 36.4067 141.332 36.43 141.272 36.43H140.592ZM145.941 42.12C145.474 42.12 145.117 41.9733 144.871 41.68C144.624 41.3867 144.501 40.94 144.501 40.34V38.98C144.501 38.3067 144.657 37.8033 144.971 37.47C145.284 37.13 145.721 36.96 146.281 36.96C146.521 36.96 146.781 36.9933 147.061 37.06C147.341 37.12 147.564 37.2033 147.731 37.31L147.771 38.25C147.584 38.15 147.384 38.0767 147.171 38.03C146.957 37.9767 146.767 37.95 146.601 37.95C146.294 37.95 146.064 38.0467 145.911 38.24C145.757 38.4333 145.681 38.7167 145.681 39.09V40.22C145.681 40.5133 145.737 40.7333 145.851 40.88C145.964 41.0267 146.137 41.1 146.371 41.1C146.524 41.1 146.671 41.07 146.811 41.01C146.957 40.95 147.111 40.86 147.271 40.74C147.431 40.6133 147.611 40.45 147.811 40.25L147.851 41.12C147.651 41.3133 147.451 41.4867 147.251 41.64C147.057 41.7933 146.854 41.9133 146.641 42C146.427 42.08 146.194 42.12 145.941 42.12ZM147.911 42C147.837 42 147.794 41.9633 147.781 41.89C147.761 41.7833 147.741 41.6567 147.721 41.51C147.707 41.3633 147.701 41.2367 147.701 41.13L147.611 40.6V35.29C147.611 35.21 147.651 35.17 147.731 35.17H148.671C148.751 35.17 148.791 35.21 148.791 35.29V40.81C148.791 40.9233 148.794 41.0467 148.801 41.18C148.807 41.3067 148.814 41.43 148.821 41.55C148.834 41.67 148.844 41.77 148.851 41.85C148.871 41.95 148.834 42 148.741 42H147.911ZM152.1 42.12C151.38 42.12 150.84 41.9633 150.48 41.65C150.12 41.33 149.94 40.8567 149.94 40.23V38.99C149.94 38.3233 150.116 37.82 150.47 37.48C150.83 37.1333 151.37 36.96 152.09 36.96C152.796 36.96 153.33 37.1267 153.69 37.46C154.05 37.7933 154.23 38.28 154.23 38.92V39.7C154.23 39.78 154.19 39.82 154.11 39.82H151.11V40.12C151.11 40.4867 151.186 40.7567 151.34 40.93C151.5 41.0967 151.756 41.18 152.11 41.18C152.383 41.18 152.593 41.1367 152.74 41.05C152.893 40.9633 152.97 40.8333 152.97 40.66C152.97 40.58 153.01 40.54 153.09 40.54H154.01C154.083 40.54 154.123 40.5767 154.13 40.65C154.15 41.13 153.983 41.4967 153.63 41.75C153.283 41.9967 152.773 42.12 152.1 42.12ZM151.11 39.02H153.07V38.97C153.07 38.6033 152.99 38.3333 152.83 38.16C152.67 37.9867 152.426 37.9 152.1 37.9C151.76 37.9 151.51 37.99 151.35 38.17C151.19 38.3433 151.11 38.6133 151.11 38.98V39.02Z" fill="black"/>
</svg>
