<svg width="189" height="187" viewBox="0 0 189 187" fill="none" xmlns="http://www.w3.org/2000/svg">
<g filter="url(#filter0_d_163_18)">
<rect x="8" y="6" width="172.144" height="170.414" rx="12" fill="white"/>
</g>
<g clip-path="url(#clip0_163_18)">
<path d="M51.0363 42.7129C54.9976 42.7129 58.2089 39.58 58.2089 35.7153C58.2089 31.8506 54.9976 28.7175 51.0363 28.7175C48.3812 28.7175 46.0633 30.1248 44.8231 32.2164H43.8634C37.9214 32.2164 33.1046 36.9158 33.1046 42.7129V74.2025H40.2773V42.7129C40.2773 40.7805 41.883 39.214 43.8634 39.214H44.8231C46.0633 41.3056 48.3812 42.7129 51.0363 42.7129Z" fill="#1351B4"/>
<path d="M43.7096 78.0564H34.3654V88.0427L43.7096 100.195L61.5022 109.744L82.4114 107.14L99.3167 94.553L105.545 78.0564H93.9782L92.1988 83.2684L85.9704 92.3828L72.624 97.1571H61.5022L49.9354 89.7787L43.7096 78.0564Z" fill="#EF7A1A"/>
<path fill-rule="evenodd" clip-rule="evenodd" d="M44.4381 74.2025H40.2773H33.1046C31.124 74.2025 29.5015 75.7725 29.6812 77.6967C30.515 86.6229 34.5236 95.0276 41.0729 101.417C45.8755 106.103 51.7887 109.455 58.2089 111.231V119.687C58.2089 124.258 61.2037 128.146 65.383 129.587C65.5359 143.469 77.1179 154.676 91.3826 154.676C105.743 154.676 117.383 143.319 117.383 129.309V115.314C117.383 108.067 123.405 102.193 130.832 102.193C138.26 102.193 144.281 108.067 144.281 115.314V123.784C140.102 125.224 137.108 129.113 137.108 133.683C137.108 139.48 141.925 144.179 147.867 144.179C153.81 144.179 158.626 139.48 158.626 133.683C158.626 129.113 155.633 125.224 151.454 123.784V115.314C151.454 104.203 142.221 95.1955 130.832 95.1955C119.444 95.1955 110.211 104.203 110.211 115.314V129.309C110.211 139.454 101.781 147.678 91.3826 147.678C81.0787 147.678 72.7082 139.603 72.5566 129.586C76.7341 128.144 79.7269 124.257 79.7269 119.687V111.231C86.1474 109.455 92.0608 106.103 96.8633 101.417C103.413 95.0276 107.421 86.6229 108.255 77.6967C108.435 75.7725 106.812 74.2025 104.831 74.2025V42.7129C104.831 36.9158 100.015 32.2164 94.0723 32.2164H93.1126C91.8724 30.1248 89.5546 28.7175 86.8997 28.7175C82.9381 28.7175 79.7269 31.8506 79.7269 35.7153C79.7269 39.58 82.9381 42.7129 86.8997 42.7129C89.5546 42.7129 91.8724 41.3056 93.1126 39.214H94.0723C96.053 39.214 97.6588 40.7805 97.6588 42.7129V74.2025H93.4982C91.5175 74.2025 89.9431 75.7801 89.6054 77.6846C88.8738 81.8111 86.8537 85.6496 83.7773 88.6506C79.8499 92.4825 74.5228 94.6354 68.9679 94.6354C63.4135 94.6354 58.0864 92.4825 54.1587 88.6506C51.0826 85.6496 49.062 81.8111 48.3303 77.6846C47.9929 75.7801 46.4185 74.2025 44.4381 74.2025ZM96.1543 81.2001H100.438C99.0979 86.9368 96.1241 92.2422 91.7914 96.4692C85.7385 102.374 77.5285 105.692 68.9679 105.692C60.4078 105.692 52.198 102.374 46.1449 96.4692C41.8122 92.2422 38.8384 86.9368 37.4979 81.2001H41.7818C43.0397 85.8504 45.5406 90.1389 49.0868 93.5986C54.3597 98.7431 61.5113 101.633 68.9679 101.633C76.425 101.633 83.5766 98.7431 88.8495 93.5986C92.3957 90.1389 94.8966 85.8504 96.1543 81.2001ZM147.867 130.184C149.848 130.184 151.454 131.75 151.454 133.683C151.454 135.615 149.848 137.182 147.867 137.182C145.887 137.182 144.281 135.615 144.281 133.683C144.281 131.75 145.887 130.184 147.867 130.184ZM72.5543 112.69V119.687C72.5543 121.62 70.9488 123.186 68.9679 123.186C66.9872 123.186 65.3817 121.62 65.3817 119.687V112.69H72.5543Z" fill="#1351B4"/>
</g>
<defs>
<filter id="filter0_d_163_18" x="0" y="0" width="188.144" height="186.414" filterUnits="userSpaceOnUse" color-interpolation-filters="sRGB">
<feFlood flood-opacity="0" result="BackgroundImageFix"/>
<feColorMatrix in="SourceAlpha" type="matrix" values="0 0 0 0 0 0 0 0 0 0 0 0 0 0 0 0 0 0 127 0" result="hardAlpha"/>
<feOffset dy="2"/>
<feGaussianBlur stdDeviation="4"/>
<feComposite in2="hardAlpha" operator="out"/>
<feColorMatrix type="matrix" values="0 0 0 0 0 0 0 0 0 0 0 0 0 0 0 0 0 0 0.25 0"/>
<feBlend mode="normal" in2="BackgroundImageFix" result="effect1_dropShadow_163_18"/>
<feBlend mode="normal" in="SourceGraphic" in2="effect1_dropShadow_163_18" result="shape"/>
</filter>
<clipPath id="clip0_163_18">
<rect x="8" y="6" width="172.144" height="170.414" rx="12" fill="white"/>
</clipPath>
</defs>
</svg>
