<svg width="189" height="187" viewBox="0 0 189 187" fill="none" xmlns="http://www.w3.org/2000/svg">
<g filter="url(#filter0_d_163_18)">
<rect x="8" y="6" width="172.144" height="170.414" rx="12" fill="white"/>
</g>
<g clip-path="url(#clip0_163_18)">
<path d="M88.7695 84.1006L77.128 88.638L75.0906 131.234L79.1656 136.346L106.237 137.766L111.767 131.234V90.9088L99.2506 88.638L88.7695 84.1006Z" fill="#EF7A1A"/>
<path fill-rule="evenodd" clip-rule="evenodd" d="M94.0721 154.186C129.724 154.186 158.626 125.989 158.626 91.2065C158.626 56.4242 129.724 28.2274 94.0721 28.2274C58.4198 28.2274 29.5179 56.4242 29.5179 91.2065C29.5179 125.989 58.4198 154.186 94.0721 154.186ZM94.0721 161.183C133.685 161.183 165.799 129.854 165.799 91.2065C165.799 52.5595 133.685 21.2297 94.0721 21.2297C54.4584 21.2297 22.3453 52.5595 22.3453 91.2065C22.3453 129.854 54.4584 161.183 94.0721 161.183Z" fill="#1351B4"/>
<path fill-rule="evenodd" clip-rule="evenodd" d="M107.222 52.8716L115.59 84.8176V131.672C115.59 136.376 111.843 140.191 107.222 140.191H80.9221C76.3007 140.191 72.5541 136.376 72.5541 131.672V84.8176L80.9221 52.8716C80.9221 52.8716 76.7382 50.7419 76.7382 46.4825C76.7382 42.2229 78.8302 42.2229 85.1062 42.2229H103.038C109.314 42.2229 111.406 42.2229 111.406 46.4825C111.406 50.7419 107.222 52.8716 107.222 52.8716ZM80.7342 81.8516L89.2786 49.2321L89.2556 49.2205H98.8886L98.8656 49.2321L108.418 85.6975V87.0003C108.384 87.0001 108.32 86.9986 108.228 86.9959C108.041 86.99 107.744 86.9774 107.362 86.9507C106.59 86.8964 105.522 86.7877 104.354 86.5753C101.725 86.0964 99.8217 85.3071 98.9668 84.5281C93.9103 79.923 87.2015 80.51 83.7898 81.1314C82.6764 81.3344 81.6423 81.5906 80.7342 81.8516ZM108.418 93.9984V129.694C108.418 131.626 106.812 133.193 104.831 133.193H83.3131C81.3324 133.193 79.7267 131.626 79.7267 129.694V89.6435C79.7267 89.6435 89.2905 85.2883 94.0721 89.6435C98.8537 93.9984 108.418 93.9984 108.418 93.9984Z" fill="#1351B4"/>
<path fill-rule="evenodd" clip-rule="evenodd" d="M44.9138 41.4991C46.3142 40.1328 48.585 40.1328 49.9855 41.4991L69.7104 60.7428C71.1109 62.1091 71.1109 64.3245 69.7104 65.691C68.31 67.0573 66.0389 67.0573 64.6385 65.691L44.9138 46.4473C43.5131 45.081 43.5131 42.8654 44.9138 41.4991Z" fill="#1351B4"/>
<path fill-rule="evenodd" clip-rule="evenodd" d="M141.745 142.665L109.468 111.175L114.54 106.227L146.817 137.717L141.745 142.665Z" fill="#1351B4"/>
<path d="M83.313 45.7227H104.831V52.7203H83.313V45.7227Z" fill="#1351B4"/>
</g>
<defs>
<filter id="filter0_d_163_18" x="0" y="0" width="188.144" height="186.414" filterUnits="userSpaceOnUse" color-interpolation-filters="sRGB">
<feFlood flood-opacity="0" result="BackgroundImageFix"/>
<feColorMatrix in="SourceAlpha" type="matrix" values="0 0 0 0 0 0 0 0 0 0 0 0 0 0 0 0 0 0 127 0" result="hardAlpha"/>
<feOffset dy="2"/>
<feGaussianBlur stdDeviation="4"/>
<feComposite in2="hardAlpha" operator="out"/>
<feColorMatrix type="matrix" values="0 0 0 0 0 0 0 0 0 0 0 0 0 0 0 0 0 0 0.25 0"/>
<feBlend mode="normal" in2="BackgroundImageFix" result="effect1_dropShadow_163_18"/>
<feBlend mode="normal" in="SourceGraphic" in2="effect1_dropShadow_163_18" result="shape"/>
</filter>
<clipPath id="clip0_163_18">
<rect x="8" y="6" width="172.144" height="170.414" rx="12" fill="white"/>
</clipPath>
</defs>
</svg>
