<svg width="189" height="184" viewBox="0 0 189 184" fill="none" xmlns="http://www.w3.org/2000/svg">
<g filter="url(#filter0_d_87_15)">
<rect x="8" y="6.02295" width="172.144" height="167.944" rx="12" fill="white"/>
</g>
<mask id="mask0_87_15" style="mask-type:luminance" maskUnits="userSpaceOnUse" x="8" y="13" width="173" height="162">
<path d="M168.144 13H20C13.3726 13 8 18.3726 8 25V162.469C8 169.097 13.3726 174.469 20 174.469H168.144C174.772 174.469 180.144 169.097 180.144 162.47V25C180.144 18.3726 174.772 13 168.144 13Z" fill="white"/>
</mask>
<g mask="url(#mask0_87_15)">
<path fill-rule="evenodd" clip-rule="evenodd" d="M80.5541 43.7739C80.3195 43.7742 80.1161 43.613 80.0546 43.3866C78.2754 36.8407 71.948 32 64.4156 32C55.5026 32 48.2771 38.7774 48.2771 47.1377C48.2771 55.4982 55.5026 62.2754 64.4156 62.2754C71.9477 62.2754 78.2745 57.4357 80.0542 50.8904C80.1159 50.6637 80.3192 50.5021 80.5541 50.5017C80.8083 50.5017 81.0437 50.6581 81.1213 50.9002C82.0045 53.6561 83.8278 55.5476 85.9336 55.5476C88.9046 55.5476 91.3131 51.7823 91.3131 47.1377C91.3131 42.4931 88.9046 38.728 85.9336 38.728C83.8278 38.728 82.0045 40.6197 81.1213 43.3754C81.0437 43.6176 80.8084 43.7739 80.5541 43.7739ZM64.2765 50.6131C68.0053 50.9495 69.7597 54.7585 66.0719 55.4044C65.5351 55.4985 64.9815 55.5476 64.4156 55.5476C63.2708 55.5476 62.176 55.3464 61.1695 54.9795C57.5118 53.6464 60.3992 50.2633 64.2765 50.6131ZM65.0191 43.931C61.032 43.6198 60.4164 38.728 64.4156 38.728C68.1197 38.728 71.2992 40.8348 72.6663 43.8407C72.6847 43.8812 72.6559 43.9271 72.6114 43.9285C69.5964 44.0249 67.2028 44.1015 65.0191 43.931Z" fill="#1351B4"/>
<path fill-rule="evenodd" clip-rule="evenodd" d="M25.4228 77.4093C31.3477 70.7447 40.2447 65.6387 51.0027 65.6387C55.7111 65.6387 59.873 68.5109 61.2742 72.7272L64.5997 82.7341C65.3435 84.9721 67.4367 86.4823 69.795 86.4823C75.7373 86.4823 80.554 91.0006 80.554 96.5741C80.554 102.148 75.7373 106.666 69.795 106.666H57.9292C57.5845 106.666 57.2427 106.651 56.9047 106.62C52.7221 106.247 45.1779 107.279 44.6906 111.45V143.01C44.6906 148.583 39.8739 153.102 33.9316 153.102C27.9897 153.102 23.1727 148.583 23.1727 143.01V123.155C23.1727 120.775 22.4393 118.464 21.2148 116.422C21.0652 116.173 20.9144 115.918 20.7634 115.658C19.7637 113.94 18.6549 111.848 17.7718 109.654C16.9523 107.619 16 104.715 16 101.599C16 92.7589 19.542 84.0241 25.4228 77.4093ZM51.0027 72.3667C42.8036 72.3667 35.7963 76.246 30.9312 81.7177C26.0848 87.1694 23.1727 94.3928 23.1727 101.599C23.1727 103.518 23.7788 105.531 24.4819 107.277C25.2075 109.079 26.1521 110.875 27.0601 112.437C27.9733 114.007 28.8816 115.395 29.5598 116.388C29.6319 116.494 29.7016 116.595 29.7686 116.692C30.1451 117.237 30.3454 117.872 30.3454 118.522V143.01C30.3454 144.868 31.9509 146.373 33.9316 146.373C35.9125 146.373 37.518 144.868 37.518 143.01V111.269C37.518 111.151 37.5243 111.033 37.5378 110.916C38.4957 102.407 41.6725 94.7564 45.2427 88.7777C45.943 87.6049 47.3199 86.936 48.7446 87.0759C50.1696 87.2155 51.369 88.1376 51.7956 89.4205L54.5054 97.5752C54.9727 98.9805 56.36 99.9379 57.9292 99.9379H69.795C71.7757 99.9379 73.3815 98.4319 73.3815 96.5741C73.3815 94.716 71.7757 93.2101 69.795 93.2101H63.2065C61.6372 93.2101 60.2499 92.2527 59.7828 90.8472L54.4266 74.7294C53.9596 73.3241 52.572 72.3667 51.0027 72.3667Z" fill="#1351B4"/>
<path d="M113.382 47.9662C117.498 49.1729 120.326 52.9488 120.326 57.2382V60.8928C120.326 64.2107 117.636 66.9004 114.318 66.9004H108.552C104.793 66.9004 101.427 64.5708 100.102 61.0523C98.7277 57.4006 99.8543 53.2789 102.895 50.8343L104.304 49.7018C106.815 47.6832 110.155 47.0202 113.247 47.9266L113.382 47.9662Z" fill="#EF7A1A"/>
<path fill-rule="evenodd" clip-rule="evenodd" d="M111.297 72.3673C102.384 72.3673 95.1584 65.5901 95.1584 57.2296C95.1584 48.8692 102.384 42.0918 111.297 42.0918C120.21 42.0918 127.435 48.8692 127.435 57.2296C127.435 65.5901 120.21 72.3673 111.297 72.3673ZM111.297 65.6395C106.345 65.6395 102.331 61.8742 102.331 57.2296C102.331 52.5852 106.345 48.8199 111.297 48.8199C116.249 48.8199 120.263 52.5852 120.263 57.2296C120.263 61.8742 116.249 65.6395 111.297 65.6395Z" fill="#1351B4"/>
<path d="M109.278 92.367C113.067 92.367 116.608 90.4833 118.725 87.3414L124.857 78.2391C128.263 73.1849 134.916 71.4859 140.328 74.2886L143.572 75.9688C145.92 77.1849 147.801 79.1426 148.922 81.5377L153.81 91.9798C154.555 93.5721 154.941 95.3087 154.941 97.0668V106.071C154.941 110.342 152.67 114.292 148.979 116.441L142.459 120.237L127.319 126.512C125.123 127.422 123.246 128.965 121.928 130.943L112.623 144.908C111.6 146.443 110.058 147.558 108.281 148.048L106.946 148.416C104.968 148.962 102.851 148.344 101.476 146.82C99.9744 145.155 99.6517 142.739 100.664 140.738L110.315 121.665C110.791 120.723 111.458 119.891 112.272 119.22L112.551 118.99C117.982 114.517 114.819 105.702 107.783 105.702H107.462C105.127 105.702 102.95 104.522 101.675 102.566L101.479 102.265C99.9865 99.9735 100.114 96.9872 101.796 94.8312C103.009 93.2761 104.871 92.367 106.844 92.367H109.278Z" fill="#EF7A1A"/>
<path fill-rule="evenodd" clip-rule="evenodd" d="M122.491 71.5918C124.556 67.2846 129.526 64.9018 134.45 65.8426C134.513 65.8535 134.556 65.8632 134.575 65.8675L134.585 65.8696L134.638 65.8805L134.716 65.8967L134.728 65.8995C134.786 65.9119 134.849 65.9261 134.915 65.9411C135.049 65.9722 135.2 66.0088 135.368 66.0525C135.702 66.1396 136.103 66.2543 136.561 66.4041C137.475 66.7031 138.621 67.1433 139.916 67.783C142.522 69.0696 145.694 71.1473 148.743 74.4315C154.973 81.1449 159.713 91.8106 159.713 108.25C159.713 109.969 159.359 115.897 153.065 118.805C152.784 118.935 152.876 119.462 153.185 119.462H183.796C186.341 119.462 188.403 121.525 188.403 124.069V149.515C188.403 151.496 186.798 153.102 184.817 153.102C182.836 153.102 181.231 151.496 181.231 149.515V141.328C181.231 134.825 175.959 129.554 169.457 129.554H153.554C147.052 129.554 141.781 134.825 141.781 141.328V149.515C141.781 151.496 140.175 153.102 138.194 153.102C136.214 153.102 134.608 151.496 134.608 149.515V128.497C134.608 126.835 132.773 125.843 131.409 126.793C129.498 128.123 127.803 129.383 126.566 130.336C125.84 130.896 125.217 131.576 124.721 132.348C124.618 132.508 124.51 132.678 124.397 132.855C123.408 134.409 122.171 136.408 120.895 138.486C120.298 139.457 119.684 140.461 119.082 141.445L119.072 141.462L118.976 141.619L118.973 141.622L118.971 141.626C117.178 144.556 115.443 147.392 114.733 148.436C111.538 153.136 104.887 154.516 99.8772 151.52C94.8668 148.524 93.3945 142.285 96.5893 137.585C97.0004 136.98 98.3399 134.794 100.127 131.874L100.132 131.866C100.797 130.779 101.514 129.608 102.25 128.41C103.533 126.322 104.841 124.206 105.921 122.509C106.458 121.665 106.974 120.87 107.419 120.212L107.438 120.183C107.74 119.738 108.421 118.73 109.176 117.911C109.816 117.216 110.646 116.538 110.943 116.296L111.006 116.244C111.518 115.825 112.164 115.313 112.904 114.743C114.389 113.598 116.362 112.133 118.58 110.589C119.015 110.285 118.802 109.596 118.271 109.596H105.917C99.9752 109.596 95.1585 105.077 95.1585 99.5037C95.1585 93.9299 99.9752 89.4119 105.917 89.4119H106.391C111.008 89.4119 115.216 86.7633 117.212 82.6005L122.491 71.5918ZM132.714 117.734C132.988 117.566 133.268 117.398 133.544 117.234C135.634 115.994 137.733 114.882 139.582 114.155C142.456 113.024 144.454 113.133 146.059 113.223L146.199 113.231C146.587 113.253 147.127 113.282 147.625 113.265C148.133 113.248 149.004 113.181 149.896 112.769C152.233 111.689 152.54 109.492 152.54 108.25C152.54 93.0502 148.184 84.0758 143.333 78.8489C140.929 76.2595 138.484 74.679 136.575 73.736C135.623 73.2659 134.807 72.9558 134.199 72.7568C133.891 72.6558 133.566 72.62 133.245 72.5729C133.213 72.5683 133.181 72.5632 133.15 72.5577C132.683 72.4771 132.217 72.3389 131.749 72.4076C130.579 72.5794 129.541 73.2902 129.032 74.3518L119.535 94.1555C118.956 95.363 117.676 96.1397 116.265 96.1397H105.917C103.937 96.1397 102.331 97.6456 102.331 99.5037C102.331 101.362 103.937 102.868 105.917 102.868H120.903C122.314 102.868 123.595 102.091 124.174 100.884L127.844 93.2306C128.432 92.0039 129.742 91.2239 131.176 91.2467C132.609 91.27 133.89 92.0916 134.433 93.3361C136.027 96.9888 137.17 100.765 137.85 104.782C138.101 106.269 137.269 107.731 135.813 108.363C131.552 110.211 126.678 113.328 122.856 115.99C120.74 117.463 118.86 118.86 117.458 119.941C116.758 120.481 116.167 120.949 115.721 121.314L115.687 121.342C115.539 121.463 115.338 121.628 115.124 121.815C114.9 122.011 114.719 122.184 114.603 122.309C114.439 122.488 114.24 122.737 114.025 123.029C113.816 123.314 113.63 123.589 113.475 123.817C113.08 124.4 112.604 125.135 112.08 125.958C111.03 127.607 109.745 129.684 108.464 131.769C107.731 132.964 107.014 134.135 106.347 135.225L106.34 135.235L106.217 135.436C104.56 138.145 103.153 140.444 102.637 141.202C101.573 142.769 102.063 144.848 103.733 145.847C105.403 146.846 107.62 146.386 108.685 144.819C109.292 143.927 110.96 141.203 112.857 138.103L112.86 138.098C113.462 137.114 114.079 136.105 114.68 135.128C115.958 133.046 117.219 131.008 118.238 129.407C118.749 128.605 119.188 127.93 119.532 127.422C119.609 127.306 119.676 127.209 119.733 127.128C119.912 126.87 120.128 126.637 120.375 126.434L120.434 126.386L120.437 126.383C120.818 126.072 121.352 125.647 122.012 125.138C123.332 124.121 125.119 122.794 127.132 121.391C128.954 120.123 130.861 118.863 132.714 117.734Z" fill="#1351B4"/>
</g>
<defs>
<filter id="filter0_d_87_15" x="0" y="0.0229492" width="188.144" height="183.944" filterUnits="userSpaceOnUse" color-interpolation-filters="sRGB">
<feFlood flood-opacity="0" result="BackgroundImageFix"/>
<feColorMatrix in="SourceAlpha" type="matrix" values="0 0 0 0 0 0 0 0 0 0 0 0 0 0 0 0 0 0 127 0" result="hardAlpha"/>
<feOffset dy="2"/>
<feGaussianBlur stdDeviation="4"/>
<feComposite in2="hardAlpha" operator="out"/>
<feColorMatrix type="matrix" values="0 0 0 0 0 0 0 0 0 0 0 0 0 0 0 0 0 0 0.25 0"/>
<feBlend mode="normal" in2="BackgroundImageFix" result="effect1_dropShadow_87_15"/>
<feBlend mode="normal" in="SourceGraphic" in2="effect1_dropShadow_87_15" result="shape"/>
</filter>
</defs>
</svg>
