<svg width="189" height="187" viewBox="0 0 189 187" fill="none" xmlns="http://www.w3.org/2000/svg">
<g filter="url(#filter0_d_87_97)">
<rect x="8.85583" y="6.02295" width="172.144" height="170.414" rx="12" fill="white"/>
</g>
<path d="M98.9204 47.9048V87.4579H135.716L155.24 77.9256L164.251 58.8785L155.24 34.7031L135.716 22.9724L110.937 29.578L98.9204 47.9048Z" fill="#EF7A1A"/>
<path fill-rule="evenodd" clip-rule="evenodd" d="M130.791 21.2527C110.985 21.2527 94.9279 36.9175 94.9279 56.2412V87.7308C94.9279 89.6631 96.5336 91.2294 98.5143 91.2294H130.791C150.598 91.2294 166.655 75.5644 166.655 56.2412C166.655 36.9175 150.598 21.2527 130.791 21.2527ZM102.101 56.2412C102.101 40.7822 114.946 28.2504 130.791 28.2504C146.637 28.2504 159.482 40.7822 159.482 56.2412C159.482 71.7 146.637 84.2318 130.791 84.2318H102.101V56.2412ZM33.9603 48.4661C33.9603 46.9773 35.2237 45.7447 36.7498 45.7447H59.0647C60.5907 45.7447 61.8542 46.9773 61.8542 48.4661C61.8542 56.6057 63.1875 64.4302 65.6591 71.7402C65.9687 72.7234 65.7383 73.7679 64.9447 74.5424L49.0768 90.0232L50.2578 92.2875C59.7854 110.556 75.1278 125.455 93.8345 134.806L96.1592 135.967L112.032 120.481C112.789 119.744 113.905 119.513 114.836 119.824L114.875 119.837C122.378 122.255 130.472 123.559 138.761 123.559C140.287 123.559 141.55 124.791 141.55 126.28V147.988C141.55 149.477 140.287 150.71 138.761 150.71C80.8738 150.71 33.9603 104.941 33.9603 48.4661ZM36.7498 38.7468C31.2624 38.7468 26.7876 43.1124 26.7876 48.4661C26.7876 108.806 76.9125 157.708 138.761 157.708C144.248 157.708 148.723 153.342 148.723 147.988V126.28C148.723 120.927 144.248 116.561 138.761 116.561C131.244 116.561 123.915 115.379 117.141 113.198C113.615 112.027 109.642 112.917 106.961 115.533L94.8079 127.39C79.2299 119.06 66.3416 106.53 57.8589 91.3517L70.0166 79.4906C72.7876 76.7867 73.58 72.9882 72.4957 69.6229L72.4879 69.5987L72.4798 69.5745C70.2399 62.9597 69.0268 55.8658 69.0268 48.4661C69.0268 43.1124 64.552 38.7468 59.0647 38.7468H36.7498Z" fill="#1351B4"/>
<defs>
<filter id="filter0_d_87_97" x="0.855835" y="0.0229492" width="188.144" height="186.414" filterUnits="userSpaceOnUse" color-interpolation-filters="sRGB">
<feFlood flood-opacity="0" result="BackgroundImageFix"/>
<feColorMatrix in="SourceAlpha" type="matrix" values="0 0 0 0 0 0 0 0 0 0 0 0 0 0 0 0 0 0 127 0" result="hardAlpha"/>
<feOffset dy="2"/>
<feGaussianBlur stdDeviation="4"/>
<feComposite in2="hardAlpha" operator="out"/>
<feColorMatrix type="matrix" values="0 0 0 0 0 0 0 0 0 0 0 0 0 0 0 0 0 0 0.25 0"/>
<feBlend mode="normal" in2="BackgroundImageFix" result="effect1_dropShadow_87_97"/>
<feBlend mode="normal" in="SourceGraphic" in2="effect1_dropShadow_87_97" result="shape"/>
</filter>
</defs>
</svg>
