<svg width="190" height="184" viewBox="0 0 190 184" fill="none" xmlns="http://www.w3.org/2000/svg">
<g filter="url(#filter0_d_87_104)">
<rect x="8.92792" y="6" width="172.144" height="167.944" rx="12" fill="white"/>
</g>
<g clip-path="url(#clip0_87_104)">
<mask id="mask0_87_104" style="mask-type:luminance" maskUnits="userSpaceOnUse" x="8" y="6" width="174" height="168">
<path d="M181.072 6H8.92792V173.944H181.072V6Z" fill="white"/>
</mask>
<g mask="url(#mask0_87_104)">
<path d="M79.7275 49.5339L84.0792 51.8866C86.1667 53.015 87.1019 55.4576 86.2839 57.6446L80.5558 72.9577C80.4029 73.3664 80.1928 73.7529 79.9316 74.1056L76.7464 78.407C76.3553 78.9352 75.856 79.3793 75.2806 79.7105L60.8691 88.0087C58.5201 89.3611 55.4909 88.558 54.1666 86.2319L51.7498 81.9854C50.7939 80.3057 50.9741 78.2286 52.2062 76.7302L73.5964 50.712C75.0736 48.9152 77.6625 48.4178 79.7275 49.5339Z" fill="#EF7A1A"/>
<path d="M114.762 101.858L130.247 92.6518C132.337 91.4095 135.048 91.8812 136.568 93.7516L139.685 97.5862C140.686 98.8168 140.995 100.452 140.51 101.949L139.634 104.653C139.453 105.214 139.166 105.736 138.788 106.195L119.64 129.404C118.719 130.52 117.331 131.169 115.863 131.169H114.925C113.915 131.169 112.93 130.861 112.108 130.288L107.469 127.055C105.659 125.794 104.961 123.491 105.777 121.472L112.775 104.161C113.162 103.203 113.86 102.394 114.762 101.858Z" fill="#EF7A1A"/>
<path fill-rule="evenodd" clip-rule="evenodd" d="M138.06 30.7677C139.826 31.436 141.418 32.3614 142.819 33.4503C144.22 34.5393 145.5 35.8463 146.563 37.3765C147.313 38.4578 147.023 39.9283 145.915 40.6606C144.807 41.3931 143.3 41.1101 142.549 40.0288C141.783 38.9253 140.847 37.9646 139.798 37.1493C138.749 36.3343 137.581 35.6588 136.307 35.177C135.059 34.7047 134.439 33.3345 134.924 32.1169C135.408 30.8993 136.812 30.2951 138.06 30.7677ZM147.192 45.1696C148.531 45.1852 149.603 46.2563 149.587 47.5626C149.55 50.5846 148.829 53.8968 147.296 57.4869C146.781 58.6924 145.362 59.2624 144.126 58.7601C142.89 58.2577 142.306 56.8731 142.821 55.6677C144.155 52.5439 144.711 49.8299 144.74 47.5058C144.755 46.2 145.854 45.1541 147.192 45.1696ZM130.133 31.9099C130.448 33.1794 129.648 34.4573 128.347 34.7643C126.032 35.3108 123.444 36.4457 120.621 38.4121C119.532 39.1713 118.018 38.9248 117.24 37.8621C116.462 36.7991 116.715 35.3224 117.804 34.5632C121.048 32.3034 124.196 30.8778 127.208 30.1674C128.509 29.8604 129.819 30.6406 130.133 31.9099ZM113.762 40.9844C114.749 41.8673 114.815 43.3633 113.909 44.3255C112.926 45.3709 111.925 46.5127 110.909 47.7577C109.63 49.3238 108.1 51.6876 106.469 54.5064C105.81 55.6437 104.331 56.045 103.166 55.4026C102 54.7603 101.589 53.3177 102.247 52.1803C103.914 49.3013 105.594 46.6757 107.117 44.8105C108.199 43.485 109.273 42.259 110.338 41.1274C111.243 40.1652 112.776 40.1012 113.762 40.9844ZM141.784 62.7648C142.886 63.5052 143.165 64.9777 142.406 66.0535C141.513 67.3183 140.528 68.6134 139.445 69.939C138.546 71.0402 137.443 72.2188 136.216 73.4315C135.275 74.3608 133.741 74.3705 132.788 73.4527C131.836 72.5352 131.826 71.0378 132.767 70.1084C133.92 68.9686 134.897 67.9192 135.654 66.992C136.671 65.747 137.588 64.5401 138.412 63.3716C139.172 62.2958 140.681 62.0241 141.784 62.7648ZM129.606 76.2744C130.479 77.2643 130.364 78.7575 129.349 79.6094C127.019 81.5654 124.57 83.5187 122.212 85.3382C121.162 86.1483 119.638 85.9749 118.807 84.9505C117.977 83.926 118.155 82.4387 119.205 81.6286C121.522 79.8408 123.918 77.9294 126.187 76.0242C127.202 75.1724 128.732 75.2845 129.606 76.2744ZM97.6011 66.2022C98.8143 66.7547 99.339 68.1617 98.7727 69.3452C97.2723 72.4821 96.0313 75.2033 95.2615 76.9415C94.6294 78.3676 93.8319 79.8158 92.9236 81.2322C92.2133 82.3392 90.7177 82.6751 89.5828 81.9821C88.4481 81.2893 88.1041 79.8302 88.8142 78.7232C89.6147 77.4752 90.2914 76.2384 90.8113 75.065C91.5999 73.285 92.8598 70.5226 94.3798 67.3452C94.9458 66.1615 96.3883 65.65 97.6011 66.2022ZM115.391 87.4968C116.183 88.5499 115.95 90.0298 114.87 90.8024C113.393 91.8599 112.097 92.7577 111.084 93.4319C110.283 93.9647 109.451 94.6379 108.626 95.4196C107.666 96.3295 106.131 96.3077 105.199 95.3712C104.266 94.4344 104.288 92.9372 105.248 92.0271C106.237 91.0901 107.283 90.2358 108.353 89.5245C109.307 88.8898 110.555 88.0251 112.003 86.9888C113.082 86.2162 114.599 86.4437 115.391 87.4968ZM103.703 97.2062C104.849 97.8815 105.217 99.3352 104.525 100.453C103.93 101.413 103.446 102.357 103.095 103.237C102.32 105.181 101.043 108.126 99.4844 111.483C98.932 112.673 97.4958 113.2 96.2764 112.662C95.0567 112.123 94.516 110.722 95.0681 109.532C96.6042 106.223 97.8439 103.362 98.5763 101.523C99.0451 100.347 99.6623 99.1596 100.375 98.0079C101.067 96.8898 102.557 96.531 103.703 97.2062ZM86.8345 85.3397C87.7783 86.2659 87.7737 87.7633 86.8242 88.684C85.6093 89.8621 84.3382 90.9414 83.0537 91.8579C81.5079 92.9609 79.0848 94.7305 76.3039 96.8392C75.2472 97.6409 73.7242 97.4547 72.9028 96.4233C72.081 95.3924 72.2717 93.9066 73.3288 93.1052C76.1459 90.9688 78.6068 89.1713 80.1918 88.0404C81.2492 87.2859 82.3358 86.3679 83.4068 85.3296C84.3562 84.4089 85.8908 84.4133 86.8345 85.3397ZM90.3551 124.267C91.5201 124.911 91.9295 126.353 91.2698 127.49C89.5319 130.483 87.7687 133.218 86.1391 135.214C85.0645 136.529 83.9982 137.746 82.9408 138.868C82.0348 139.829 80.5014 139.892 79.5161 139.008C78.5306 138.124 78.4661 136.628 79.3721 135.667C80.347 134.632 81.3393 133.501 82.3477 132.266C83.7402 130.561 85.3566 128.078 87.0512 125.159C87.7112 124.023 89.1901 123.623 90.3551 124.267ZM63.4645 104.022C64.3654 104.988 64.293 106.483 63.3029 107.362C60.8668 109.525 58.8639 111.487 57.6024 113.032C56.5941 114.267 55.6856 115.463 54.8697 116.622C54.1115 117.698 52.6027 117.971 51.4992 117.231C50.3959 116.491 50.1162 115.019 50.8744 113.943C51.7589 112.687 52.7361 111.401 53.811 110.085C55.3187 108.239 57.5523 106.073 60.0401 103.865C61.0304 102.985 62.5632 103.056 63.4645 104.022ZM49.2028 121.175C50.4407 121.672 51.0308 123.054 50.5215 124.262C49.2142 127.359 48.6866 130.047 48.6839 132.347C48.6818 133.653 47.5953 134.71 46.2566 134.709C44.9179 134.707 43.8339 133.647 43.836 132.341C43.8398 129.332 44.5304 126.035 46.0387 122.461C46.548 121.253 47.9649 120.677 49.2028 121.175ZM76.0892 142.073C76.8623 143.139 76.6036 144.615 75.5107 145.369C72.2772 147.602 69.1374 148.995 66.1322 149.671C64.8277 149.965 63.5262 149.171 63.2255 147.899C62.9245 146.626 63.7384 145.356 65.0426 145.063C67.3402 144.546 69.908 143.444 72.7101 141.509C73.8032 140.754 75.3156 141.007 76.0892 142.073ZM47.5702 139.128C48.6725 138.387 50.1818 138.658 50.9415 139.733C51.7116 140.823 52.6472 141.775 53.6925 142.588C54.7378 143.4 55.8985 144.077 57.1594 144.566C58.4032 145.048 59.0112 146.423 58.5168 147.637C58.0224 148.85 56.6131 149.443 55.3694 148.961C53.6287 148.287 52.0576 147.364 50.6716 146.286C49.2853 145.209 48.0133 143.921 46.9503 142.417C46.1903 141.342 46.468 139.869 47.5702 139.128Z" fill="#1351B4"/>
<path fill-rule="evenodd" clip-rule="evenodd" d="M135.577 89.8036L139.412 94.0494C142.52 97.4905 142.651 102.611 139.721 106.198L120.311 129.966C117.382 133.552 112.237 134.573 108.105 132.386L102.891 129.626C100.202 135.212 96.9733 140.806 93.6616 144.862C85.249 155.163 75.7211 161.301 66.1048 163.28C56.404 165.277 47.0728 162.932 39.5779 157.106C32.083 151.28 27.655 142.931 27.4827 133.259C27.3118 123.673 31.3154 113.241 39.7278 102.94C42.973 98.966 47.9662 94.591 52.9204 90.7945L48.9691 86.4203C45.8612 82.9794 45.7308 77.8591 48.6603 74.272L68.0703 50.5042C70.9995 46.9173 76.1444 45.8971 80.2763 48.0838L85.4146 50.803C88.0821 45.3633 91.2688 39.8269 94.4451 35.9375C102.927 25.5507 112.513 19.3332 122.167 17.2886C131.91 15.2249 141.286 17.5204 148.8 23.3611C156.314 29.2019 160.703 37.6046 160.818 47.331C160.931 56.9681 156.861 67.4727 148.379 77.8593C145.138 81.8275 140.432 86.0466 135.577 89.8036ZM70.0925 85.2052C76.1679 82.1041 81.5573 75.5385 83.3165 69.0684C85.405 61.3889 92.1692 46.3142 98.2365 38.8846C114.202 19.3344 132.98 17.1117 145.779 27.0601C158.578 37.0086 160.553 55.362 144.587 74.9122C141.616 78.5501 137.134 82.5773 132.368 86.2504C128.845 88.9654 118.128 95.7489 115.46 96.9573C110.552 99.1806 106.292 104.422 105.186 109.585C103.407 117.894 96.5072 133.787 89.8698 141.915C74.0576 161.277 55.3975 163.355 42.5988 153.407C29.7997 143.458 27.7071 125.25 43.5193 105.887C46.4652 102.28 51.2156 98.0991 56.1308 94.3487C60.0112 91.3882 67.6751 86.4388 70.0925 85.2052ZM131.713 92.6789C126.649 96.3011 121.475 99.4473 117.502 101.247C113.983 102.841 110.724 106.849 109.931 110.553C109.074 114.558 107.214 119.904 104.873 125.295L110.417 128.229C112.483 129.322 115.055 128.812 116.52 127.018L135.93 103.251C137.395 101.457 137.329 98.8968 135.775 97.1764L131.713 92.6789ZM56.7961 87.9318L52.6064 83.2933C51.0521 81.5729 50.9873 79.0127 52.4518 77.2194L71.8618 53.4513C73.3265 51.6578 75.8988 51.1478 77.9651 52.2412L83.3954 55.115C81.2852 59.8379 79.5619 64.4307 78.6308 67.8555C77.2213 73.0393 72.7192 78.5267 67.8453 81.0142C64.792 82.5729 60.8309 85.0597 56.7961 87.9318Z" fill="#1351B4"/>
</g>
</g>
<defs>
<filter id="filter0_d_87_104" x="0.927917" y="0" width="188.144" height="183.944" filterUnits="userSpaceOnUse" color-interpolation-filters="sRGB">
<feFlood flood-opacity="0" result="BackgroundImageFix"/>
<feColorMatrix in="SourceAlpha" type="matrix" values="0 0 0 0 0 0 0 0 0 0 0 0 0 0 0 0 0 0 127 0" result="hardAlpha"/>
<feOffset dy="2"/>
<feGaussianBlur stdDeviation="4"/>
<feComposite in2="hardAlpha" operator="out"/>
<feColorMatrix type="matrix" values="0 0 0 0 0 0 0 0 0 0 0 0 0 0 0 0 0 0 0.25 0"/>
<feBlend mode="normal" in2="BackgroundImageFix" result="effect1_dropShadow_87_104"/>
<feBlend mode="normal" in="SourceGraphic" in2="effect1_dropShadow_87_104" result="shape"/>
</filter>
<clipPath id="clip0_87_104">
<rect width="172.144" height="167.944" fill="white" transform="translate(8.92792 6)"/>
</clipPath>
</defs>
</svg>
