<svg width="190" height="187" viewBox="0 0 190 187" fill="none" xmlns="http://www.w3.org/2000/svg">
<g filter="url(#filter0_d_87_38)">
<rect x="8.92792" y="6.55371" width="172.144" height="170.414" rx="12" fill="white"/>
</g>
<path d="M26.2781 49.2827H37.4365V125.047L40.9174 128.265C45.767 125.196 63.7242 122.434 96.7546 135.938C128.212 123.355 143.417 125.58 147.087 128.265L152.955 125.047V49.2827L163.633 51.651V140.2C153.278 136.254 124.998 130.729 94.7109 140.2C69.8604 133.381 38.7347 137.358 26.2781 140.2V49.2827Z" fill="#EF7A1A"/>
<path d="M48.415 81.2738C61.5736 81.141 68.9161 82.4383 82.8853 88.0027L85.5966 81.5243C70.7955 75.6282 62.508 74.1335 48.3403 74.2765L48.415 81.2738Z" fill="#1351B4"/>
<path d="M82.8853 101.998C68.9161 96.4335 61.5736 95.1361 48.415 95.2689L48.3403 88.2716C62.508 88.1286 70.7955 89.6233 85.5966 95.5194L82.8853 101.998Z" fill="#1351B4"/>
<path d="M48.415 109.264C61.5736 109.131 68.9161 110.428 82.8853 115.993L85.5966 109.514C70.7955 103.618 62.508 102.123 48.3403 102.266L48.415 109.264Z" fill="#1351B4"/>
<path d="M141.585 109.264C128.426 109.131 121.084 110.428 107.115 115.993L104.403 109.514C119.204 103.618 127.492 102.123 141.659 102.266L141.585 109.264Z" fill="#1351B4"/>
<path d="M107.115 101.998C121.084 96.4335 128.426 95.1361 141.585 95.2689L141.659 88.2716C127.492 88.1286 119.204 89.6233 104.403 95.5194L107.115 101.998Z" fill="#1351B4"/>
<path d="M141.585 81.2738C128.426 81.141 121.084 82.4383 107.115 88.0027L104.403 81.5243C119.204 75.6282 127.492 74.1335 141.659 74.2765L141.585 81.2738Z" fill="#1351B4"/>
<path d="M57.3435 63.7697V53.2732H50.1706V63.7697H57.3435Z" fill="#1351B4"/>
<path d="M69.8956 56.7727V67.2692H62.723V56.7727H69.8956Z" fill="#1351B4"/>
<path d="M82.4479 70.7678V60.2712H75.2753V70.7678H82.4479Z" fill="#1351B4"/>
<path d="M132.657 63.7697V53.2732H139.829V63.7697H132.657Z" fill="#1351B4"/>
<path d="M120.104 56.7727V67.2692H127.277V56.7727H120.104Z" fill="#1351B4"/>
<path d="M107.552 70.7678V60.2712H114.725V70.7678H107.552Z" fill="#1351B4"/>
<path fill-rule="evenodd" clip-rule="evenodd" d="M95 47.1155C95.3093 47.051 95.6179 46.9873 95.9247 46.9243C113.841 38.5031 129.282 32.451 150.682 37.7968C153.879 38.5953 155.968 41.4207 155.968 44.498V45.4822C158.551 45.9878 161.224 46.5669 164.013 47.2224C165.61 47.5981 166.727 48.9984 166.727 50.6013V139.957C166.727 142.171 164.637 143.825 162.408 143.41C140.128 139.263 125.107 138.972 104.59 142.008C102.811 145.411 99.1848 147.742 95 147.742C90.8148 147.742 87.1884 145.411 85.4093 142.008C64.8922 138.972 49.8724 139.263 27.592 143.41C25.3628 143.825 23.2732 142.171 23.2732 139.957V50.6013C23.2732 48.9984 24.3892 47.5981 25.9865 47.2224C28.7754 46.5669 31.4494 45.9878 34.0322 45.4822V44.498C34.0322 41.4207 36.1214 38.5953 39.3179 37.7968C60.718 32.451 76.1588 38.5031 94.075 46.9243C94.382 46.9873 94.6901 47.051 95 47.1155ZM98.5861 53.4378C116.443 45.0248 129.909 39.8632 148.795 44.5486V123.443C148.795 123.443 148.783 123.461 148.768 123.472C148.717 123.512 148.65 123.53 148.578 123.517C131.009 120.372 117.447 123.644 102.691 129.906C101.553 128.77 100.153 127.886 98.5861 127.346V53.4378ZM91.4136 53.4413V127.346C89.847 127.886 88.4468 128.77 87.3087 129.906C72.5529 123.644 58.9905 120.372 41.4216 123.517C41.3495 123.53 41.2832 123.512 41.2315 123.472L41.2262 123.467C41.2138 123.456 41.2049 123.443 41.2049 123.443V44.5486C60.0909 39.8632 73.5564 45.0285 91.4136 53.4413ZM159.554 53.3897C158.336 53.1185 157.141 52.8636 155.968 52.6243V123.443C155.968 128.027 151.627 131.177 147.284 130.4C133.742 127.976 122.896 129.727 111.16 134.083C127.561 132.217 141.387 132.677 159.554 135.785V53.3897ZM78.8394 134.083C67.1043 129.727 56.2574 127.976 42.716 130.4C38.3732 131.177 34.0322 128.027 34.0322 123.443V52.6243C32.8584 52.8636 31.6638 53.1185 30.4458 53.3897V135.785C48.6127 132.677 62.4392 132.217 78.8394 134.083Z" fill="#1351B4"/>
<defs>
<filter id="filter0_d_87_38" x="0.927917" y="0.553711" width="188.144" height="186.414" filterUnits="userSpaceOnUse" color-interpolation-filters="sRGB">
<feFlood flood-opacity="0" result="BackgroundImageFix"/>
<feColorMatrix in="SourceAlpha" type="matrix" values="0 0 0 0 0 0 0 0 0 0 0 0 0 0 0 0 0 0 127 0" result="hardAlpha"/>
<feOffset dy="2"/>
<feGaussianBlur stdDeviation="4"/>
<feComposite in2="hardAlpha" operator="out"/>
<feColorMatrix type="matrix" values="0 0 0 0 0 0 0 0 0 0 0 0 0 0 0 0 0 0 0.25 0"/>
<feBlend mode="normal" in2="BackgroundImageFix" result="effect1_dropShadow_87_38"/>
<feBlend mode="normal" in="SourceGraphic" in2="effect1_dropShadow_87_38" result="shape"/>
</filter>
</defs>
</svg>
