<svg width="190" height="184" viewBox="0 0 190 184" fill="none" xmlns="http://www.w3.org/2000/svg">
<g filter="url(#filter0_d_87_78)">
<rect x="8.89194" y="6.02295" width="172.144" height="167.944" rx="12" fill="white"/>
</g>
<mask id="mask0_87_78" style="mask-type:luminance" maskUnits="userSpaceOnUse" x="8" y="9" width="174" height="170">
<path d="M181.036 9.21997H8.89194V178.575H181.036V9.21997Z" fill="white"/>
</mask>
<g mask="url(#mask0_87_78)">
<path d="M146.573 79.1235V114.439L137.919 121.955L126.909 118.949L123.37 81.7476H107.248V112.184L99.3835 121.955L88.7665 118.949L84.0477 109.178V83.6235L67.1346 81.2022V109.178L62.4206 118.949H51.0173L44.3325 112.184L46.2952 81.7476L67.1346 81.2022L146.573 79.1235Z" fill="#EF7A1A"/>
<path fill-rule="evenodd" clip-rule="evenodd" d="M38.3453 49.4275C38.3453 47.5346 39.9511 46 41.9317 46H70.6223C72.603 46 74.2088 47.5346 74.2088 49.4275C74.2088 51.3204 72.603 52.855 70.6223 52.855V76.8468H81.3813V52.855C79.4007 52.855 77.7949 51.3204 77.7949 49.4275C77.7949 47.5346 79.4007 46 81.3813 46H110.072C112.053 46 113.658 47.5346 113.658 49.4275C113.658 51.3204 112.053 52.855 110.072 52.855V76.8468H120.831V52.855C118.85 52.855 117.245 51.3204 117.245 49.4275C117.245 47.5346 118.85 46 120.831 46H149.522C151.503 46 153.108 47.5346 153.108 49.4275C153.108 51.3204 151.503 52.855 149.522 52.855V76.8468H156.694V66.5645H163.867V76.8468H167.453V83.7018H163.867V128.258H167.453V135.113H163.867V141.968H156.694V135.113H34.759V141.968H27.5863V135.113H24V128.258H27.5863V83.7018H24V76.8468H27.5863V66.5645H34.759V76.8468H41.9317V52.855C39.9511 52.855 38.3453 51.3204 38.3453 49.4275ZM34.759 128.258H156.694V83.7018H149.522V111.121C149.522 118.693 143.099 124.831 135.176 124.831C127.254 124.831 120.831 118.693 120.831 111.121V83.7018H110.072V111.121C110.072 118.693 103.649 124.831 95.7268 124.831C87.8041 124.831 81.3813 118.693 81.3813 111.121V83.7018H70.6223V111.121C70.6223 118.693 64.1996 124.831 56.2769 124.831C48.3545 124.831 41.9317 118.693 41.9317 111.121V83.7018H34.759V128.258ZM63.4497 52.855V76.8468H49.1043V52.855H63.4497ZM102.899 76.8468H88.5539V52.855H102.899V76.8468ZM142.349 76.8468H128.004V52.855H142.349V76.8468ZM49.1043 111.121V83.7018H63.4497V111.121C63.4497 114.907 60.2385 117.976 56.2769 117.976C52.3156 117.976 49.1043 114.907 49.1043 111.121ZM88.5539 111.121V83.7018H102.899V111.121C102.899 114.907 99.6881 117.976 95.7268 117.976C91.7652 117.976 88.5539 114.907 88.5539 111.121ZM128.004 111.121V83.7018H142.349V111.121C142.349 114.907 139.138 117.976 135.176 117.976C131.215 117.976 128.004 114.907 128.004 111.121Z" fill="#1351B4"/>
</g>
<defs>
<filter id="filter0_d_87_78" x="0.891937" y="0.0229492" width="188.144" height="183.944" filterUnits="userSpaceOnUse" color-interpolation-filters="sRGB">
<feFlood flood-opacity="0" result="BackgroundImageFix"/>
<feColorMatrix in="SourceAlpha" type="matrix" values="0 0 0 0 0 0 0 0 0 0 0 0 0 0 0 0 0 0 127 0" result="hardAlpha"/>
<feOffset dy="2"/>
<feGaussianBlur stdDeviation="4"/>
<feComposite in2="hardAlpha" operator="out"/>
<feColorMatrix type="matrix" values="0 0 0 0 0 0 0 0 0 0 0 0 0 0 0 0 0 0 0.25 0"/>
<feBlend mode="normal" in2="BackgroundImageFix" result="effect1_dropShadow_87_78"/>
<feBlend mode="normal" in="SourceGraphic" in2="effect1_dropShadow_87_78" result="shape"/>
</filter>
</defs>
</svg>
