<svg width="189" height="187" viewBox="0 0 189 187" fill="none" xmlns="http://www.w3.org/2000/svg">
<g filter="url(#filter0_d_87_68)">
<rect x="8.85583" y="6" width="172.144" height="170.414" rx="12" fill="white"/>
</g>
<path d="M141.85 62.7795C143.781 63.2127 145.705 62.0371 146.149 60.1537C146.593 58.2705 145.388 56.3927 143.457 55.96L119.731 50.6386C117.801 50.2054 115.877 51.3811 115.433 53.2645C114.989 55.1475 116.194 57.0252 118.124 57.4582L141.85 62.7795Z" fill="#1351B4"/>
<path fill-rule="evenodd" clip-rule="evenodd" d="M130.791 84.699C146.636 84.699 159.482 72.1671 159.482 56.7083C159.482 41.2493 146.636 28.7175 130.791 28.7175C114.946 28.7175 102.101 41.2493 102.101 56.7083C102.101 72.1671 114.946 84.699 130.791 84.699ZM130.791 77.7014C142.675 77.7014 152.309 68.3024 152.309 56.7083C152.309 45.1142 142.675 35.7153 130.791 35.7153C118.907 35.7153 109.273 45.1142 109.273 56.7083C109.273 68.3024 118.907 77.7014 130.791 77.7014Z" fill="#1351B4"/>
<path fill-rule="evenodd" clip-rule="evenodd" d="M69.0281 40.0723C66.7059 34.7129 58.9402 34.1723 55.8208 39.1529L31.424 78.1036C28.6097 82.5969 31.7563 88.3332 37.2449 88.7152L79.8018 91.6777C85.2904 92.0598 89.2834 86.8207 87.1885 81.9856L69.0281 40.0723ZM61.9717 42.759C61.9664 42.7651 61.9555 42.7785 61.9411 42.8017L37.5824 81.6919L37.588 81.6959C37.5951 81.7003 37.6059 81.7063 37.6252 81.7127C37.6432 81.7189 37.6839 81.7302 37.7553 81.7349L80.3121 84.6974C80.384 84.7026 80.4276 84.6972 80.4498 84.693C80.4736 84.6888 80.4901 84.6828 80.5033 84.6764C80.5205 84.6688 80.5377 84.6576 80.5531 84.6441L62.4218 42.797C62.415 42.7814 62.4091 42.7708 62.4056 42.7642C62.3843 42.7523 62.3198 42.7227 62.2129 42.7148C62.0947 42.7069 62.0155 42.7323 61.9897 42.7446L61.981 42.7496L61.977 42.753L61.9717 42.759Z" fill="#1351B4"/>
<path d="M115.199 139.013L100.931 111.186L75.3982 119.235L70.8913 129.491L75.3982 144.875L91.1671 150.736L115.199 139.013Z" fill="#EF7A1A"/>
<path fill-rule="evenodd" clip-rule="evenodd" d="M135.758 134.94C146.528 130.04 151.188 117.549 146.166 107.041C141.143 96.5335 128.341 91.9876 117.57 96.8874L78.5661 114.631C67.7952 119.531 63.1354 132.022 68.1577 142.53C73.1805 153.037 85.983 157.584 96.7539 152.684L135.758 134.94ZM81.5974 120.973C74.4167 124.24 71.3102 132.567 74.6585 139.572C78.0069 146.577 86.5422 149.608 93.7227 146.342L109.739 139.055L97.6154 113.69L81.5974 120.973ZM116.24 136.098L104.115 110.729L120.601 103.229C127.782 99.9628 136.317 102.993 139.665 109.999C143.013 117.004 139.907 125.331 132.726 128.598L116.24 136.098Z" fill="#1351B4"/>
<defs>
<filter id="filter0_d_87_68" x="0.855835" y="0" width="188.144" height="186.414" filterUnits="userSpaceOnUse" color-interpolation-filters="sRGB">
<feFlood flood-opacity="0" result="BackgroundImageFix"/>
<feColorMatrix in="SourceAlpha" type="matrix" values="0 0 0 0 0 0 0 0 0 0 0 0 0 0 0 0 0 0 127 0" result="hardAlpha"/>
<feOffset dy="2"/>
<feGaussianBlur stdDeviation="4"/>
<feComposite in2="hardAlpha" operator="out"/>
<feColorMatrix type="matrix" values="0 0 0 0 0 0 0 0 0 0 0 0 0 0 0 0 0 0 0.25 0"/>
<feBlend mode="normal" in2="BackgroundImageFix" result="effect1_dropShadow_87_68"/>
<feBlend mode="normal" in="SourceGraphic" in2="effect1_dropShadow_87_68" result="shape"/>
</filter>
</defs>
</svg>
