<svg width="190" height="187" viewBox="0 0 190 187" fill="none" xmlns="http://www.w3.org/2000/svg">
<g filter="url(#filter0_d_87_30)">
<rect x="8.96399" y="6" width="172.144" height="170.414" rx="12" fill="white"/>
</g>
<path fill-rule="evenodd" clip-rule="evenodd" d="M59.1726 91.6965V119.687H87.8632V91.6965H59.1726ZM80.6906 112.69V98.6944H66.3452V112.69H80.6906Z" fill="#1351B4"/>
<path d="M59.0817 46.7043L71.0946 34.9775H84.6137L93.6245 46.7043H154.448L159.704 50.3724L140.931 58.4307H84.6137V65.7566H71.0946V58.4307H47.8194L35.8053 46.7043H59.0817Z" fill="#EF7A1A"/>
<path fill-rule="evenodd" clip-rule="evenodd" d="M77.1045 28.7175C67.7558 28.7175 59.7999 34.5335 56.8304 42.659H30.482V51.3418L44.8274 61.9457V147.678H34.0683C32.0877 147.678 30.482 149.244 30.482 151.177C30.482 153.109 32.0877 154.676 34.0683 154.676H44.8274V154.73H145.245V154.676H156.004C157.985 154.676 159.59 153.109 159.59 151.177C159.59 149.244 157.985 147.678 156.004 147.678H145.245V62.069L161.383 51.465V42.659H97.3782C94.4087 34.5335 86.4529 28.7175 77.1045 28.7175ZM97.398 56.7083C98.1908 54.5194 98.6225 52.1644 98.6225 49.7105V49.6566H151.295L140.563 56.7083H97.398ZM93.1432 63.7059C89.2031 68.0009 83.4773 70.7035 77.1045 70.7035C70.7316 70.7035 65.0055 68.0009 61.0654 63.7059H52V147.678H95.036V91.6966H130.899V147.678H138.072V63.7059H93.1432ZM55.5864 49.7105C55.5864 52.1644 56.0178 54.5194 56.8107 56.7083H49.6191L40.0795 49.6566H55.5864V49.7105ZM80.6906 46.2118V39.214H73.518V46.2118H66.3454V53.2094H73.518V60.207H80.6906V53.2094H87.8635V46.2118H80.6906ZM123.727 98.6944V147.678H102.209V98.6944H123.727Z" fill="#1351B4"/>
<defs>
<filter id="filter0_d_87_30" x="0.963989" y="0" width="188.144" height="186.414" filterUnits="userSpaceOnUse" color-interpolation-filters="sRGB">
<feFlood flood-opacity="0" result="BackgroundImageFix"/>
<feColorMatrix in="SourceAlpha" type="matrix" values="0 0 0 0 0 0 0 0 0 0 0 0 0 0 0 0 0 0 127 0" result="hardAlpha"/>
<feOffset dy="2"/>
<feGaussianBlur stdDeviation="4"/>
<feComposite in2="hardAlpha" operator="out"/>
<feColorMatrix type="matrix" values="0 0 0 0 0 0 0 0 0 0 0 0 0 0 0 0 0 0 0.25 0"/>
<feBlend mode="normal" in2="BackgroundImageFix" result="effect1_dropShadow_87_30"/>
<feBlend mode="normal" in="SourceGraphic" in2="effect1_dropShadow_87_30" result="shape"/>
</filter>
</defs>
</svg>
