<svg width="190" height="187" viewBox="0 0 190 187" fill="none" xmlns="http://www.w3.org/2000/svg">
<g filter="url(#filter0_d_87_88)">
<rect x="8.96405" y="6.49316" width="172.144" height="170.414" rx="12" fill="white"/>
</g>
<path d="M128.14 98.532L106.341 122.395L114.351 132.373H128.14L139.265 122.395L136.15 108.936L128.14 98.532Z" fill="#EF7A1A"/>
<path fill-rule="evenodd" clip-rule="evenodd" d="M33.4163 58.9517C31.7957 57.3708 31.7957 54.8071 33.4163 53.2265L56.8902 30.3242C58.5109 28.7432 61.1384 28.7432 62.7591 30.3242C64.3793 31.9052 64.3793 34.4686 62.7591 36.0497L59.8266 38.9107L74.496 53.2225L86.233 41.7714C87.8536 40.1905 90.4811 40.1905 92.1018 41.7714C93.722 43.3526 93.722 45.916 92.1018 47.4971L86.2317 53.224L136.116 101.892C142.132 107.762 143.681 116.339 140.763 123.604L144.918 127.657C147.089 129.776 147.806 132.776 147.068 135.477L156.656 144.832C158.277 146.413 158.277 148.976 156.656 150.557C155.035 152.138 152.408 152.138 150.788 150.557L141.201 141.204C138.431 141.926 135.354 141.228 133.181 139.108L129.026 135.054C121.581 137.901 112.789 136.389 106.773 130.52L99.0987 123.03L123.368 99.3517L81.1598 58.172L61.9606 76.9035L70.4567 85.1925H60.3136L56.889 81.8514L51.0216 87.5756C49.4015 89.1567 46.774 89.1567 45.1533 87.5756C43.5329 85.9944 43.5329 83.4313 45.1533 81.8502L56.8902 70.3991L42.221 56.087L39.2847 58.9517C37.6643 60.5326 35.0368 60.5326 33.4163 58.9517ZM54.7546 43.8589L47.2927 51.139L61.9622 65.4506L69.4244 58.1707L54.7546 43.8589ZM111.845 125.572C115.783 129.414 121.538 130.402 126.411 128.536L134.083 121.051C135.995 116.297 134.982 110.682 131.044 106.841L129.237 105.077L110.038 123.808L111.845 125.572ZM136.116 130.52C135.848 130.781 135.576 131.033 135.298 131.276L138.253 134.159C138.693 134.589 139.406 134.589 139.846 134.159C140.286 133.73 140.286 133.034 139.846 132.605L136.891 129.722C136.642 129.993 136.383 130.259 136.116 130.52Z" fill="#1351B4"/>
<path d="M66.3455 106.185C68.3262 106.185 69.9317 107.751 69.9317 109.684V116.681H77.1045C79.0852 116.681 80.6907 118.248 80.6907 120.18C80.6907 122.112 79.0852 123.679 77.1045 123.679H69.9317V130.677C69.9317 132.609 68.3262 134.176 66.3455 134.176C64.3646 134.176 62.7591 132.609 62.7591 130.677V123.679H55.5865C53.6056 123.679 52.0001 122.112 52.0001 120.18C52.0001 118.248 53.6056 116.681 55.5865 116.681H62.7591V109.684C62.7591 107.751 64.3646 106.185 66.3455 106.185Z" fill="#1351B4"/>
<path fill-rule="evenodd" clip-rule="evenodd" d="M40.0204 140.084C46.2158 147.721 54.8691 153.042 64.5494 155.169C74.2307 153.043 82.8855 147.722 89.0817 140.086C95.2779 132.45 98.6441 122.957 98.6225 113.177V100.586C98.6225 98.3589 97.7251 96.2233 96.1282 94.6488C94.5311 93.0744 92.3654 92.1897 90.107 92.1897H38.9974C36.739 92.1897 34.5733 93.0744 32.9763 94.6488C31.3793 96.2233 30.4822 98.3589 30.4822 100.586V113.177C30.4604 122.955 33.8254 132.448 40.0204 140.084ZM91.4497 113.177V113.192C91.4677 121.397 88.6432 129.352 83.4579 135.743C78.6136 141.713 71.9827 145.98 64.5496 147.96C57.1178 145.979 50.488 141.712 45.6447 135.742C40.4603 129.351 37.6364 121.396 37.6549 113.192V100.586C37.6549 100.191 37.8146 99.8275 38.0749 99.5706C38.3326 99.3167 38.666 99.1875 38.9974 99.1875H90.107C90.4384 99.1875 90.772 99.3167 91.0295 99.5706C91.2897 99.8275 91.4497 100.191 91.4497 100.586V113.177Z" fill="#1351B4"/>
<defs>
<filter id="filter0_d_87_88" x="0.96405" y="0.493164" width="188.144" height="186.414" filterUnits="userSpaceOnUse" color-interpolation-filters="sRGB">
<feFlood flood-opacity="0" result="BackgroundImageFix"/>
<feColorMatrix in="SourceAlpha" type="matrix" values="0 0 0 0 0 0 0 0 0 0 0 0 0 0 0 0 0 0 127 0" result="hardAlpha"/>
<feOffset dy="2"/>
<feGaussianBlur stdDeviation="4"/>
<feComposite in2="hardAlpha" operator="out"/>
<feColorMatrix type="matrix" values="0 0 0 0 0 0 0 0 0 0 0 0 0 0 0 0 0 0 0.25 0"/>
<feBlend mode="normal" in2="BackgroundImageFix" result="effect1_dropShadow_87_88"/>
<feBlend mode="normal" in="SourceGraphic" in2="effect1_dropShadow_87_88" result="shape"/>
</filter>
</defs>
</svg>
